<svg width="17" height="16" viewBox="0 0 17 16" fill="none" xmlns="http://www.w3.org/2000/svg">
<mask id="mask0_98_3806" style="mask-type:alpha" maskUnits="userSpaceOnUse" x="0" y="0" width="17" height="16">
<rect x="0.636353" width="16" height="16" fill="#D9D9D9"/>
</mask>
<g mask="url(#mask0_98_3806)">
<path d="M8.13631 11.1667H9.13631V7.33335H8.13631V11.1667ZM8.63631 6.19235C8.78887 6.19235 8.91676 6.14074 9.01998 6.03752C9.1232 5.9343 9.17481 5.80641 9.17481 5.65385C9.17481 5.5013 9.1232 5.37341 9.01998 5.27019C8.91676 5.16708 8.78887 5.11552 8.63631 5.11552C8.48376 5.11552 8.35587 5.16708 8.25265 5.27019C8.14942 5.37341 8.09781 5.5013 8.09781 5.65385C8.09781 5.80641 8.14942 5.9343 8.25265 6.03752C8.35587 6.14074 8.48376 6.19235 8.63631 6.19235ZM8.63748 14.3334C7.76148 14.3334 6.93809 14.1671 6.16731 13.8347C5.39653 13.5022 4.72609 13.0511 4.15598 12.4812C3.58587 11.9113 3.13448 11.2411 2.80181 10.4707C2.46926 9.70024 2.30298 8.87708 2.30298 8.00119C2.30298 7.12519 2.4692 6.3018 2.80165 5.53102C3.13409 4.76024 3.58526 4.0898 4.15515 3.51969C4.72503 2.94958 5.3952 2.49819 6.16565 2.16552C6.93609 1.83296 7.75926 1.66669 8.63515 1.66669C9.51115 1.66669 10.3345 1.83291 11.1053 2.16535C11.8761 2.4978 12.5465 2.94896 13.1166 3.51885C13.6868 4.08874 14.1381 4.75891 14.4708 5.52935C14.8034 6.2998 14.9696 7.12296 14.9696 7.99885C14.9696 8.87485 14.8034 9.69824 14.471 10.469C14.1385 11.2398 13.6874 11.9102 13.1175 12.4804C12.5476 13.0505 11.8774 13.5019 11.107 13.8345C10.3365 14.1671 9.51337 14.3334 8.63748 14.3334ZM8.63631 13.3334C10.1252 13.3334 11.3863 12.8167 12.4196 11.7834C13.453 10.75 13.9696 9.48891 13.9696 8.00002C13.9696 6.51113 13.453 5.25002 12.4196 4.21669C11.3863 3.18335 10.1252 2.66669 8.63631 2.66669C7.14742 2.66669 5.88631 3.18335 4.85298 4.21669C3.81965 5.25002 3.30298 6.51113 3.30298 8.00002C3.30298 9.48891 3.81965 10.75 4.85298 11.7834C5.88631 12.8167 7.14742 13.3334 8.63631 13.3334Z" fill="#606671"/>
</g>
</svg>
