<svg width="32" height="24" viewBox="0 0 32 24" fill="none" xmlns="http://www.w3.org/2000/svg">
<path fill-rule="evenodd" clip-rule="evenodd" d="M15.5407 4.88242L16.7523 6.49789L16.2485 6.87573L15.5709 5.9723L3.43808 23.8655H2.80835L15.5407 4.88242Z" fill="#E3E5E7"/>
<path fill-rule="evenodd" clip-rule="evenodd" d="M21.4781 0.134277H30.3518V1.48819H22.2229L19.2556 6.16984L31.6536 23.8435H6.45109L17.6285 6.20794L15.5595 3.25849L1.57424 23.8435H-5.18528e-05L15.5469 0.882881L18.4135 4.9694L21.4781 0.134277ZM18.4706 7.40839L8.91215 22.4896H29.05L18.4706 7.40839Z" fill="#E3E5E7"/>
<path fill-rule="evenodd" clip-rule="evenodd" d="M19.0166 4.54224H27.5179V5.89615H19.0166V4.54224Z" fill="#E3E5E7"/>
<path fill-rule="evenodd" clip-rule="evenodd" d="M18.7018 9.3125L10.7941 21.7496H27.2031L18.7018 9.3125ZM18.7208 10.4563L11.9407 21.1199H26.0099L18.7208 10.4563Z" fill="#E3E5E7"/>
</svg>
